HIERARCHY
ROOT Hips
{
	OFFSET 0.00000 0.00000 0.00000
	CHANNELS 6 Xposition Yposition Zposition Zrotation Yrotation Xrotation 
	JOINT LHipJoint
	{
		OFFSET 0 0 0
		CHANNELS 3 Zrotation Yrotation Xrotation
		JOINT LeftUpLeg
		{
			OFFSET 1.37590 -1.78394 0.89329
			CHANNELS 3 Zrotation Yrotation Xrotation
			JOINT LeftLeg
			{
				OFFSET 2.47928 -6.81178 0.00000
				CHANNELS 3 Zrotation Yrotation Xrotation
				JOINT LeftFoot
				{
					OFFSET 2.63345 -7.23535 0.00000
					CHANNELS 3 Zrotation Yrotation Xrotation
					JOINT LeftToeBase
					{
						OFFSET 0.23938 -0.65768 2.27012
						CHANNELS 3 Zrotation Yrotation Xrotation
						End Site
						{
							OFFSET 0.00000 -0.00000 1.18363
						}
					}
				}
			}
		}
	}
	JOINT RHipJoint
	{
		OFFSET 0 0 0
		CHANNELS 3 Zrotation Yrotation Xrotation
		JOINT RightUpLeg
		{
			OFFSET -1.33617 -1.78394 0.89329
			CHANNELS 3 Zrotation Yrotation Xrotation
			JOINT RightLeg
			{
				OFFSET -2.56922 -7.05888 0.00000
				CHANNELS 3 Zrotation Yrotation Xrotation
				JOINT RightFoot
				{
					OFFSET -2.56568 -7.04915 0.00000
					CHANNELS 3 Zrotation Yrotation Xrotation
					JOINT RightToeBase
					{
						OFFSET -0.27533 -0.75646 2.18105
						CHANNELS 3 Zrotation Yrotation Xrotation
						End Site
						{
							OFFSET -0.00000 -0.00000 1.15233
						}
					}
				}
			}
		}
	}
	JOINT LowerBack
	{
		OFFSET 0 0 0
		CHANNELS 3 Zrotation Yrotation Xrotation
		JOINT Spine
		{
			OFFSET 0.06190 2.15152 -0.00935
			CHANNELS 3 Zrotation Yrotation Xrotation
			JOINT Spine1
			{
				OFFSET 0.06334 2.15332 0.00872
				CHANNELS 3 Zrotation Yrotation Xrotation
				JOINT Neck
				{
					OFFSET 0 0 0
					CHANNELS 3 Zrotation Yrotation Xrotation
					JOINT Neck1
					{
						OFFSET -0.04202 1.66908 0.23524
						CHANNELS 3 Zrotation Yrotation Xrotation
						JOINT Head
						{
							OFFSET 0.07510 1.69357 -0.24440
							CHANNELS 3 Zrotation Yrotation Xrotation
							End Site
							{
								OFFSET 0.02556 1.71719 -0.11000
							}
						}
					}
				}
				JOINT LeftShoulder
				{
					OFFSET 0 0 0
					CHANNELS 3 Zrotation Yrotation Xrotation
					JOINT LeftArm
					{
						OFFSET 3.67168 1.26306 -0.41342
						CHANNELS 3 Zrotation Yrotation Xrotation
						JOINT LeftForeArm
						{
							OFFSET 4.68510 -0.00000 -0.00000
							CHANNELS 3 Zrotation Yrotation Xrotation
							JOINT LeftHand
							{
								OFFSET 3.39626 -0.00000 -0.00000
								CHANNELS 3 Zrotation Yrotation Xrotation
								JOINT LeftFingerBase
								{
									OFFSET 0 0 0
									CHANNELS 3 Zrotation Yrotation Xrotation
									JOINT LeftHandIndex1
									{
										OFFSET 0.48608 -0.00000 -0.00000
										CHANNELS 3 Zrotation Yrotation Xrotation
										End Site
										{
											OFFSET 0.39189 -0.00000 -0.00000
										}
									}
								}
								JOINT LThumb
								{
									OFFSET 0 0 0
									CHANNELS 3 Zrotation Yrotation Xrotation
									End Site
									{
										OFFSET 0.39787 -0.00000 0.39787
									}
								}
							}
						}
					}
				}
				JOINT RightShoulder
				{
					OFFSET 0 0 0
					CHANNELS 3 Zrotation Yrotation Xrotation
					JOINT RightArm
					{
						OFFSET -3.04136 1.42992 -0.76390
						CHANNELS 3 Zrotation Yrotation Xrotation
						JOINT RightForeArm
						{
							OFFSET -5.55576 -0.00000 -0.00000
							CHANNELS 3 Zrotation Yrotation Xrotation
							JOINT RightHand
							{
								OFFSET -3.32774 -0.00000 -0.00000
								CHANNELS 3 Zrotation Yrotation Xrotation
								JOINT RightFingerBase
								{
									OFFSET 0 0 0
									CHANNELS 3 Zrotation Yrotation Xrotation
									JOINT RightHandIndex1
									{
										OFFSET -0.50763 -0.00000 -0.00000
										CHANNELS 3 Zrotation Yrotation Xrotation
										End Site
										{
											OFFSET -0.40926 -0.00000 -0.00000
										}
									}
								}
								JOINT RThumb
								{
									OFFSET 0 0 0
									CHANNELS 3 Zrotation Yrotation Xrotation
									End Site
									{
										OFFSET -0.41551 -0.00000 0.41551
									}
								}
							}
						}
					}
				}
			}
		}
	}
}
MOTION
Frames: 13
Frame Time: .0083333
-5.3108 17.8742 5.6946 -80.9732 -83.4428 83.6609 0.0000 0.0000 0.0000 -12.1552 -8.8380 -19.3171 1.1400 6.7805 19.0668 -0.0114 3.1936 -3.9017 0.1933 -2.8310 -7.8087 0.0000 0.0000 0.0000 27.6613 -5.4093 -11.7767 -6.9516 -15.2910 48.6910 0.3368 -10.5816 -6.8130 -0.2241 -3.0471 8.4100 4.4759 3.9589 -4.0147 2.6686 5.0479 -2.9796 0.4223 2.4402 -0.6790 -11.2661 -7.3709 -1.2837 14.0279 -8.9383 -19.5776 6.5304 -4.7221 -4.3673 0.0000 0.0000 0.0000 -88.9186 -9.2157 51.4080 129.7254 -53.1057 -93.6064 -0.0000 0.0000 -48.9307 15.0730 54.6786 12.3932 -7.1250 0.0000 -0.0000 -72.8357 77.2966 -60.0210 0.0000 0.0000 0.0000 95.3806 15.1531 62.3422 -57.0031 55.4570 -31.8597 0.0000 -0.0000 -59.9414 -39.3934 -66.4014 36.9629 7.1250 -0.0000 -0.0000 141.9896 76.8394 150.8679
-5.4293 17.8871 5.6992 -75.8253 -83.4863 78.4530 0.0000 0.0000 0.0000 -12.5498 -8.7524 -18.8239 1.1301 6.7519 18.9824 -0.0005 2.7926 -3.9568 0.1914 -2.8176 -7.7714 0.0000 0.0000 0.0000 27.3469 -5.5633 -12.6251 -7.1763 -15.4785 49.5378 0.3839 -11.1629 -6.6704 -0.2454 -3.1880 8.8025 4.3011 3.9023 -3.9294 2.5957 4.9872 -2.9584 0.4357 2.4136 -0.7138 -11.2987 -7.5249 -1.2272 14.0394 -9.1495 -19.6305 6.5414 -4.8248 -4.3636 0.0000 0.0000 0.0000 -88.7916 -8.1205 51.9987 129.1003 -53.3520 -93.1056 -0.0000 0.0000 -48.8856 14.8423 54.7032 12.2043 -7.1250 0.0000 -0.0000 -72.9772 77.2120 -60.0635 0.0000 0.0000 0.0000 95.5398 16.2523 62.1913 -58.2460 55.8241 -32.8857 0.0000 -0.0000 -60.0073 -39.3746 -66.3405 36.9317 7.1250 -0.0000 -0.0000 141.9298 76.8913 150.7813
-5.5462 17.9001 5.7040 -70.7592 -83.4813 73.3362 0.0000 0.0000 0.0000 -12.9323 -8.6698 -18.3306 1.1186 6.7186 18.8842 0.0096 2.3999 -4.0269 0.1888 -2.7983 -7.7177 0.0000 0.0000 0.0000 27.0227 -5.6876 -13.4817 -7.3838 -15.6468 50.3116 0.4291 -11.7084 -6.5818 -0.2662 -3.3190 9.1682 4.1323 3.8359 -3.8388 2.5237 4.9132 -2.9394 0.4459 2.3801 -0.7536 -11.3175 -7.6640 -1.1835 14.0422 -9.3405 -19.6672 6.5461 -4.9176 -4.3567 0.0000 0.0000 0.0000 -88.6733 -7.0505 52.5963 128.3542 -53.6381 -92.5060 -0.0000 0.0000 -48.7966 14.6595 54.6208 12.0399 -7.1250 0.0000 -0.0000 -72.6431 77.1285 -59.6556 0.0000 0.0000 0.0000 95.6921 17.3867 62.0261 -59.5888 56.1994 -33.9992 0.0000 -0.0000 -60.0427 -39.2964 -66.2493 36.8359 7.1250 -0.0000 -0.0000 141.7573 76.9751 150.5800
-5.6617 17.9131 5.7090 -65.8741 -83.4308 68.4097 0.0000 0.0000 0.0000 -13.3010 -8.5884 -17.8376 1.1056 6.6808 18.7730 0.0191 2.0164 -4.1105 0.1852 -2.7720 -7.6445 0.0000 0.0000 0.0000 26.6894 -5.7812 -14.3424 -7.5722 -15.7954 51.0065 0.4721 -12.2168 -6.5477 -0.2858 -3.4381 9.5008 3.9720 3.7611 -3.7434 2.4534 4.8273 -2.9226 0.4526 2.3403 -0.7980 -11.3220 -7.7882 -1.1536 14.0359 -9.5112 -19.6864 6.5442 -5.0005 -4.3461 -0.0000 -0.0000 0.0000 -88.5675 -6.0050 53.1979 127.4798 -53.9627 -91.8003 -0.0000 0.0000 -48.6465 14.4750 54.4291 11.8587 -7.1250 0.0000 -0.0000 -71.8413 77.0241 -58.7835 -0.0000 -0.0000 0.0000 95.8388 18.5529 61.8432 -61.0306 56.5784 -35.1999 0.0000 -0.0000 -60.0447 -39.1415 -66.1256 36.6582 7.1250 -0.0000 -0.0000 141.4429 77.0928 150.2378
-5.7757 17.9260 5.7142 -61.2473 -83.3409 63.7515 0.0000 0.0000 0.0000 -13.6559 -8.5075 -17.3483 1.0916 6.6397 18.6523 0.0279 1.6463 -4.2035 0.1807 -2.7381 -7.5505 0.0000 0.0000 0.0000 26.3465 -5.8422 -15.2047 -7.7392 -15.9241 51.6179 0.5127 -12.6866 -6.5668 -0.3042 -3.5461 9.8029 3.8200 3.6773 -3.6441 2.3857 4.7290 -2.9082 0.4571 2.2940 -0.8464 -11.3133 -7.8960 -1.1380 14.0201 -9.6597 -19.6883 6.5359 -5.0725 -4.3321 0.0000 0.0000 0.0000 -88.4786 -4.9837 53.7942 126.4699 -54.3237 -90.9818 -0.0000 0.0000 -48.4321 14.1976 54.2012 11.5960 -7.1250 0.0000 -0.0000 -70.9217 76.8735 -57.7539 0.0000 0.0000 0.0000 95.9811 19.7468 61.6426 -62.5705 56.9569 -36.4880 0.0000 -0.0000 -60.0104 -38.9104 -65.9653 36.3981 7.1250 -0.0000 -0.0000 140.9735 77.2478 149.7400
-5.8883 17.9389 5.7197 -56.9392 -83.2200 59.4207 0.0000 0.0000 0.0000 -13.9981 -8.4265 -16.8608 1.0766 6.5954 18.5220 0.0359 1.2970 -4.3041 0.1758 -2.7006 -7.4464 0.0000 0.0000 0.0000 25.9922 -5.8704 -16.0640 -7.8834 -16.0328 52.1416 0.5505 -13.1164 -6.6358 -0.3208 -3.6409 10.0685 3.6769 3.5861 -3.5388 2.3206 4.6202 -2.8960 0.4588 2.2422 -0.9001 -11.2913 -7.9870 -1.1357 13.9967 -9.7851 -19.6739 6.5218 -5.1332 -4.3151 0.0000 0.0000 0.0000 -88.4087 -3.9866 54.3804 125.3225 -54.7162 -90.0475 -0.0000 0.0000 -48.1665 13.8297 53.9329 11.2542 -7.1250 0.0000 -0.0000 -69.8842 76.6747 -56.5666 0.0000 0.0000 0.0000 96.1179 20.9634 61.4184 -64.2098 57.3312 -37.8651 0.0000 -0.0000 -59.9396 -38.6455 -65.7826 36.1004 7.1250 -0.0000 -0.0000 140.4170 77.4228 149.1529
-5.9996 17.9515 5.7254 -52.9436 -83.0720 55.4130 0.0000 0.0000 0.0000 -14.3268 -8.3488 -16.3793 1.0609 6.5487 18.3850 0.0434 0.9633 -4.4151 0.1702 -2.6578 -7.3276 0.0000 0.0000 0.0000 25.6281 -5.8671 -16.9203 -8.0032 -16.1216 52.5744 0.5856 -13.5073 -6.7540 -0.3352 -3.7208 10.2925 3.5418 3.4869 -3.4318 2.2579 4.5003 -2.8862 0.4584 2.1846 -0.9567 -11.2485 -8.0624 -1.1468 13.9595 -9.8896 -19.6449 6.4989 -5.1839 -4.2963 0.0000 0.0000 0.0000 -88.3584 -3.0168 54.9530 124.0354 -55.1351 -88.9940 -0.0000 0.0000 -47.8705 13.3341 53.7018 10.8146 -7.1250 0.0000 -0.0000 -69.0782 76.4299 -55.5505 0.0000 0.0000 0.0000 96.2519 22.2000 61.1693 -65.9415 57.6958 -39.3259 0.0000 -0.0000 -59.8219 -38.2673 -65.5706 35.6860 7.1250 -0.0000 -0.0000 139.6219 77.6306 148.3401
-6.1095 17.9638 5.7313 -49.2916 -82.9060 51.7575 0.0000 0.0000 0.0000 -14.6431 -8.2718 -15.9016 1.0444 6.4991 18.2395 0.0506 0.6437 -4.5346 0.1643 -2.6112 -7.1980 0.0000 0.0000 0.0000 25.2526 -5.8306 -17.7685 -8.0976 -16.1906 52.9134 0.6174 -13.8578 -6.9174 -0.3470 -3.7850 10.4727 3.4145 3.3806 -3.3208 2.1987 4.3702 -2.8782 0.4573 2.1216 -1.0171 -11.1923 -8.1204 -1.1714 13.9141 -9.9703 -19.6009 6.4703 -5.2231 -4.2751 0.0000 0.0000 0.0000 -88.3320 -2.0757 55.5053 122.6057 -55.5747 -87.8178 -0.0000 0.0000 -47.5734 12.7865 53.4376 10.3308 -7.1250 0.0000 -0.0000 -68.2015 76.1525 -54.4378 0.0000 0.0000 0.0000 96.3825 23.4487 60.8957 -67.7632 58.0466 -40.8686 0.0000 -0.0000 -59.6581 -37.8246 -65.3281 35.2028 7.1250 -0.0000 -0.0000 138.6446 77.8662 147.3475
-6.2182 17.9758 5.7375 -45.9356 -82.7279 48.4078 0.0000 0.0000 0.0000 -14.9508 -8.1977 -15.4304 1.0273 6.4473 18.0880 0.0574 0.3339 -4.6606 0.1579 -2.5607 -7.0579 0.0000 0.0000 0.0000 24.8626 -5.7645 -18.6072 -8.1649 -16.2392 53.1544 0.6458 -14.1691 -7.1216 -0.3564 -3.8352 10.6135 3.2904 3.2663 -3.2080 2.1427 4.2289 -2.8722 0.4576 2.0530 -1.0805 -11.1243 -8.1614 -1.2110 13.8627 -10.0275 -19.5410 6.4368 -5.2508 -4.2507 0.0000 -0.0000 0.0000 -88.3307 -1.1671 56.0343 121.0355 -56.0276 -86.5191 -0.0000 0.0000 -47.2908 12.2042 53.1420 9.8180 -7.1250 0.0000 -0.0000 -67.2685 75.8482 -53.2492 0.0000 -0.0000 0.0000 96.5078 24.7044 60.5988 -69.6745 58.3800 -42.4933 0.0000 -0.0000 -59.4576 -37.3393 -65.0440 34.6697 7.1250 -0.0000 -0.0000 137.4949 78.1340 146.1755
-6.3258 17.9874 5.7438 -42.8733 -82.5435 45.3611 0.0000 0.0000 0.0000 -15.2492 -8.1252 -14.9661 1.0097 6.3935 17.9306 0.0640 0.0340 -4.7910 0.1510 -2.5038 -6.9001 0.0000 0.0000 0.0000 24.4591 -5.6682 -19.4334 -8.2044 -16.2675 53.2956 0.6703 -14.4399 -7.3620 -0.3631 -3.8710 10.7139 3.1699 3.1457 -3.0915 2.0898 4.0789 -2.8690 0.4593 1.9798 -1.1487 -11.0410 -8.1873 -1.2636 13.8018 -10.0641 -19.4671 6.3968 -5.2686 -4.2240 -0.0000 0.0000 0.0000 -88.3533 -0.2931 56.5388 119.3206 -56.4883 -85.0930 -0.0000 0.0000 -47.0281 11.5880 52.8154 9.2781 -7.1250 0.0000 -0.0000 -66.2924 75.5159 -51.9970 -0.0000 0.0000 0.0000 96.6275 25.9589 60.2757 -71.6678 58.6913 -44.1936 0.0000 -0.0000 -59.2197 -36.8030 -64.7183 34.0790 7.1250 -0.0000 -0.0000 136.1274 78.4321 144.7821
-6.4322 17.9985 5.7501 -40.0785 -82.3556 42.5903 0.0000 0.0000 0.0000 -15.5374 -8.0553 -14.5109 0.9920 6.3391 17.7714 0.0704 -0.2543 -4.9245 0.1439 -2.4445 -6.7357 0.0000 0.0000 0.0000 24.0434 -5.5443 -20.2449 -8.2155 -16.2755 53.3353 0.6908 -14.6722 -7.6339 -0.3671 -3.8917 10.7721 3.0531 3.0188 -2.9720 2.0404 3.9200 -2.8671 0.4627 1.9021 -1.2197 -10.9459 -8.1978 -1.3302 13.7356 -10.0796 -19.3809 6.3524 -5.2761 -4.1949 0.0000 0.0000 0.0000 -88.4005 0.5405 57.0171 117.4623 -56.9491 -83.5395 -0.0000 0.0000 -46.7809 10.9453 52.4664 8.7188 -7.1250 0.0000 -0.0000 -65.3132 75.1599 -50.7232 0.0000 0.0000 0.0000 96.7414 27.2086 59.9231 -73.7335 58.9762 -45.9612 0.0000 -0.0000 -58.9503 -36.2226 -64.3600 33.4395 7.1250 -0.0000 -0.0000 134.5298 78.7503 143.1588
-6.5375 18.0091 5.7565 -37.5185 -82.1670 40.0629 0.0000 0.0000 0.0000 -15.8168 -7.9901 -14.0647 0.9744 6.2842 17.6112 0.0765 -0.5234 -5.0617 0.1369 -2.3845 -6.5696 0.0000 0.0000 0.0000 23.6148 -5.3957 -21.0402 -8.1978 -16.2628 53.2721 0.7073 -14.8668 -7.9323 -0.3683 -3.8982 10.7905 2.9393 2.8855 -2.8495 1.9943 3.7522 -2.8675 0.4681 1.8198 -1.2947 -10.8411 -8.1923 -1.4095 13.6668 -10.0726 -19.2818 6.3048 -5.2728 -4.1632 0.0000 -0.0000 0.0000 -88.4705 1.3329 57.4676 115.4608 -57.4030 -81.8574 -0.0000 0.0000 -46.5385 10.2647 52.0942 8.1318 -7.1250 0.0000 -0.0000 -64.3429 74.7752 -49.4337 0.0000 -0.0000 0.0000 96.8495 28.4450 59.5425 -75.8610 59.2310 -47.7869 0.0000 -0.0000 -58.6438 -35.5897 -63.9784 32.7455 7.1250 -0.0000 -0.0000 132.6659 79.0766 141.2774
-6.6417 18.0192 5.7630 -35.1770 -81.9801 37.7622 0.0000 0.0000 0.0000 -16.0860 -7.9285 -13.6282 0.9570 6.2294 17.4515 0.0824 -0.7682 -5.2049 0.1305 -2.3281 -6.4134 0.0000 0.0000 0.0000 23.1750 -5.2241 -21.8170 -8.1513 -16.2294 53.1058 0.7193 -15.0236 -8.2530 -0.3669 -3.8907 10.7694 2.8283 2.7465 -2.7287 1.9526 3.5760 -2.8664 0.4770 1.7334 -1.3671 -10.7264 -8.1719 -1.5025 13.5932 -10.0452 -19.1747 6.2535 -5.2597 -4.1303 -0.0000 -0.0000 0.0000 -88.5660 2.0748 57.8901 113.3174 -57.8425 -80.0471 -0.0000 0.0000 -46.2986 9.5491 51.7043 7.5211 -7.1250 0.0000 -0.0000 -63.4060 74.3642 -48.1529 -0.0000 -0.0000 0.0000 96.9493 29.6671 59.1322 -78.0370 59.4523 -49.6588 0.0000 -0.0000 -58.3118 -34.9303 -63.5784 32.0237 7.1250 -0.0000 -0.0000 130.5584 79.4035 139.1570
